HIERARCHY
ROOT hip
{
	OFFSET 0.000000 0.000000 0.000000
	CHANNELS 6 Xposition Yposition Zposition Zrotation Yrotation Xrotation 
	JOINT lhipjoint
	{
		OFFSET 0.000000 0.000000 0.000000
		CHANNELS 3 Zrotation Yrotation Xrotation
		JOINT lfemur
		{
			OFFSET 1.363060 -1.794630 0.839290
			CHANNELS 3 Zrotation Yrotation Xrotation
			JOINT ltibia
			{
				OFFSET 2.448110 -6.726130 0.000000
				CHANNELS 3 Zrotation Yrotation Xrotation
				JOINT lfoot
				{
					OFFSET 2.562200 -7.039590 0.000000
					CHANNELS 3 Zrotation Yrotation Xrotation
					JOINT ltoes
					{
						OFFSET 0.157640 -0.433110 2.322550
						CHANNELS 3 Zrotation Yrotation Xrotation
						End Site
						{
							OFFSET 0.000000 0.000000 0.000000
						}
					}
				}
			}
		}
	}
	JOINT rhipjoint
	{
		OFFSET 0.000000 0.000000 0.000000
		CHANNELS 3 Zrotation Yrotation Xrotation
		JOINT rfemur
		{
			OFFSET -1.305520 -1.794630 0.839290
			CHANNELS 3 Zrotation Yrotation Xrotation
			JOINT rtibia
			{
				OFFSET -2.542530 -6.985550 0.000000
				CHANNELS 3 Zrotation Yrotation Xrotation
				JOINT rfoot
				{
					OFFSET -2.568260 -7.056230 0.000000
					CHANNELS 3 Zrotation Yrotation Xrotation
					JOINT rtoes
					{
						OFFSET -0.164730 -0.452590 2.363150
						CHANNELS 3 Zrotation Yrotation Xrotation
						End Site
						{
							OFFSET 0.000000 0.000000 0.000000
						}
					}
				}
			}
		}
	}
	JOINT lowerback
	{
		OFFSET 0.000000 0.000000 0.000000
		CHANNELS 3 Zrotation Yrotation Xrotation
		JOINT upperback
		{
			OFFSET 0.028270 2.035590 -0.193380
			CHANNELS 3 Zrotation Yrotation Xrotation
			JOINT thorax
			{
				OFFSET 0.056720 2.048850 -0.042750
				CHANNELS 3 Zrotation Yrotation Xrotation
				JOINT lowerneck
				{
					OFFSET 0.000000 0.000000 0.000000
					CHANNELS 3 Zrotation Yrotation Xrotation
					JOINT upperneck
					{
						OFFSET -0.054170 1.746240 0.172020
						CHANNELS 3 Zrotation Yrotation Xrotation
						JOINT head
						{
							OFFSET 0.104070 1.761360 -0.123970
							CHANNELS 3 Zrotation Yrotation Xrotation
							End Site
							{
								OFFSET 0.000000 0.000000 0.000000
							}
						}
					}
				}
				JOINT lclavicle
				{
					OFFSET 0.000000 0.000000 0.000000
					CHANNELS 3 Zrotation Yrotation Xrotation
					JOINT lhumerus
					{
						OFFSET 3.362410 1.200890 -0.311210
						CHANNELS 3 Zrotation Yrotation Xrotation
						JOINT lradius
						{
							OFFSET 4.983000 -0.000000 -0.000000
							CHANNELS 3 Zrotation Yrotation Xrotation
							JOINT lwrist
							{
								OFFSET 3.483560 -0.000000 -0.000000
								CHANNELS 3 Zrotation Yrotation Xrotation
								JOINT lhand
								{
									OFFSET 0.000000 0.000000 0.000000
									CHANNELS 3 Zrotation Yrotation Xrotation
									JOINT lfingers
									{
										OFFSET 0.715260 -0.000000 -0.000000
										CHANNELS 3 Zrotation Yrotation Xrotation
										End Site
										{
											OFFSET 0.000000 0.000000 0.000000
										}
									}
								}
								JOINT lthumb
								{
									OFFSET 0.000000 0.000000 0.000000
									CHANNELS 3 Zrotation Yrotation Xrotation
									End Site
									{
										OFFSET 0.000000 0.000000 0.000000
									}
								}
							}
						}
					}
				}
				JOINT rclavicle
				{
					OFFSET 0.000000 0.000000 0.000000
					CHANNELS 3 Zrotation Yrotation Xrotation
					JOINT rhumerus
					{
						OFFSET -3.136600 1.374050 -0.404650
						CHANNELS 3 Zrotation Yrotation Xrotation
						JOINT rradius
						{
							OFFSET -5.241900 -0.000000 -0.000000
							CHANNELS 3 Zrotation Yrotation Xrotation
							JOINT rwrist
							{
								OFFSET -3.444170 -0.000000 -0.000000
								CHANNELS 3 Zrotation Yrotation Xrotation
								JOINT rhand
								{
									OFFSET 0.000000 0.000000 0.000000
									CHANNELS 3 Zrotation Yrotation Xrotation
									JOINT rfingers
									{
										OFFSET -0.622530 -0.000000 -0.000000
										CHANNELS 3 Zrotation Yrotation Xrotation
										End Site
										{
											OFFSET 0.000000 0.000000 0.000000
										}
									}
								}
								JOINT rthumb
								{
									OFFSET 0.000000 0.000000 0.000000
									CHANNELS 3 Zrotation Yrotation Xrotation
									End Site
									{
										OFFSET 0.000000 0.000000 0.000000
									}
								}
							}
						}
					}
				}
			}
		}
	}
}
MOTION
Frames: 7
Frame Time: 0.008333
2.721384 17.488880 3.486740 -153.365010 -50.718602 148.810261 -5.152178 -5.675629 -4.290826 -3.351376 -19.932479 12.578868 1.449595 8.376057 16.952723 -0.465674 -18.441954 12.245037 0.309800 3.578100 9.892700 12.073006 -0.265478 4.345028 -12.134943 3.251167 -102.521279 -32.069899 -10.833625 132.817152 -3.242262 11.429238 21.521333 -0.902100 6.053100 -16.938400 -2.090939 -1.081204 44.742539 1.577061 -7.094550 -0.143308 -1.830189 -5.040600 7.937364 -10.234438 -10.426523 -17.098833 29.953404 -18.324290 3.508587 8.377600 -8.712900 6.002600 -6.457027 -3.705792 5.023867 -159.750516 -77.590316 121.515620 134.745238 -48.195227 -98.633759 -1.840828 2.530183 -4.909025 45.514848 -16.797021 -20.327700 -7.125000 0.000000 0.000000 11.544000 2.223700 -11.322300 7.539090 3.332037 2.237548 80.244015 -26.968027 28.630064 -19.058968 38.739454 -4.607652 -0.272585 -1.864355 14.242275 -11.214608 10.614524 -2.506400 7.125000 0.000000 0.000000 10.968100 -17.359100 7.332400 
2.737777 17.482162 3.492025 -152.936355 -50.928662 148.528853 -5.177117 -5.664575 -4.295097 -3.331329 -20.666081 12.393442 1.505354 8.542881 17.507608 -0.470849 -18.241327 11.774309 0.308500 3.570700 9.872000 12.082460 -0.224796 4.324997 -12.338305 3.044482 -103.153854 -32.045620 -10.866499 132.716896 -3.213486 11.440625 21.355332 -0.863900 5.926800 -16.572100 -1.993530 -1.017100 45.153786 1.624315 -6.950725 -0.118826 -1.649837 -5.030084 7.801857 -10.188789 -10.338060 -16.605561 30.226744 -18.247666 3.062613 8.507600 -8.765000 5.773500 -6.442293 -3.791829 4.852179 -161.939012 -77.437116 123.398168 134.790435 -48.204762 -98.703439 -1.865195 2.517950 -5.157189 45.686369 -16.527678 -20.214500 -7.125000 0.000000 0.000000 11.716000 2.488100 -11.441200 7.588733 3.323964 2.292981 80.132000 -27.005368 28.777503 -18.745240 38.427933 -4.488408 -0.247790 -1.842415 14.008418 -10.874230 10.382279 -2.382300 7.125000 0.000000 0.000000 11.203800 -17.639200 7.425900 
2.751662 17.471681 3.496773 -152.614111 -51.098185 148.338522 -5.189190 -5.637493 -4.296687 -3.336749 -21.313728 12.117085 1.570564 8.741289 18.155204 -0.492011 -18.132094 11.253664 0.294300 3.488300 9.641400 12.078752 -0.192750 4.301762 -12.483043 2.953490 -103.620224 -32.003096 -10.904712 132.547499 -3.187138 11.403904 21.210039 -0.809000 5.739900 -16.031600 -1.942774 -0.924923 45.522444 1.664894 -6.793832 -0.089294 -1.481965 -5.017156 7.695222 -10.128607 -10.259380 -16.267630 30.475570 -18.193827 2.787221 8.605500 -8.796800 5.634100 -6.432201 -3.870752 4.655089 -164.337108 -77.279143 125.459989 134.726739 -48.283550 -98.674735 -1.881533 2.510696 -5.408157 45.727208 -16.289147 -20.037800 -7.125000 0.000000 0.000000 11.798600 2.766300 -11.464600 7.634582 3.327256 2.353215 80.024773 -26.987002 28.977650 -18.415403 38.105858 -4.359692 -0.220023 -1.814921 13.769033 -10.432580 10.159907 -2.240400 7.125000 0.000000 0.000000 11.509700 -17.920200 7.564400 
2.764651 17.458782 3.500625 -152.374287 -51.211536 148.175763 -5.193530 -5.601376 -4.294592 -3.379439 -21.899686 11.851884 1.640999 8.956185 18.846424 -0.513902 -18.050033 10.731530 0.273900 3.366100 9.299600 12.054833 -0.176342 4.279735 -12.546053 3.028995 -103.906039 -31.943903 -10.943024 132.315022 -3.159779 11.315518 21.046579 -0.758600 5.562600 -15.520600 -1.913541 -0.796107 45.899543 1.696376 -6.601050 -0.070875 -1.326585 -4.980838 7.538899 -10.075749 -10.184380 -15.908393 30.725885 -18.154033 2.578195 8.705200 -8.829100 5.519800 -6.420458 -3.952086 4.465654 -166.613397 -77.016527 127.392165 134.585969 -48.401200 -98.572938 -1.893055 2.512526 -5.691073 45.604383 -16.132602 -19.829700 -7.125000 0.000000 0.000000 11.760000 2.998300 -11.374600 7.675452 3.342242 2.406122 79.952882 -27.033127 29.157552 -18.084005 37.784482 -4.227881 -0.194666 -1.779083 13.694785 -9.925469 10.000026 -2.098700 7.125000 0.000000 0.000000 11.859700 -18.148800 7.743400 
2.776206 17.443912 3.503849 -152.183347 -51.301355 148.078820 -5.192595 -5.558816 -4.290571 -3.387316 -22.406369 11.505965 1.717063 9.179629 19.569556 -0.543266 -18.047432 10.275760 0.268700 3.334500 9.211500 12.023680 -0.166262 4.257135 -12.559078 3.177625 -104.107922 -31.873053 -10.985294 132.038977 -3.137039 11.201551 20.927483 -0.758400 5.561600 -15.517600 -1.873488 -0.675295 46.198895 1.717817 -6.416661 -0.056729 -1.222964 -4.933502 7.395880 -10.063444 -10.153674 -15.678965 30.963316 -18.181593 2.526489 8.788600 -8.863100 5.507100 -6.413823 -4.025039 4.277891 -168.779352 -76.734070 129.217103 134.402160 -48.545851 -98.427824 -1.900136 2.517044 -6.049034 45.348758 -16.024134 -19.576800 -7.125000 0.000000 0.000000 11.626400 3.220500 -11.191300 7.701266 3.371383 2.451854 79.931445 -27.077594 29.321346 -17.731705 37.457920 -4.088741 -0.173948 -1.735249 13.700648 -9.359206 9.948143 -1.964500 7.125000 0.000000 0.000000 12.249800 -18.278600 7.974100 
2.786239 17.429490 3.506716 -152.106200 -51.350572 148.074121 -5.179834 -5.508396 -4.287324 -3.442874 -22.843233 11.155183 1.794634 9.398440 20.277255 -0.568657 -18.037116 9.808784 0.264900 3.311000 9.145800 11.977914 -0.162007 4.231554 -12.556756 3.466794 -104.215195 -31.789634 -11.023699 131.722316 -3.114464 11.005454 20.809293 -0.848200 5.873900 -16.418900 -1.856729 -0.521395 46.419614 1.731149 -6.206922 -0.032704 -1.136331 -4.871342 7.307755 -10.146341 -10.148114 -15.517879 31.253475 -18.243162 2.480498 8.906000 -8.904700 5.541500 -6.417984 -4.088946 4.092095 -170.927848 -76.394815 131.054544 134.213644 -48.694565 -98.271920 -1.906658 2.523427 -6.535744 44.992036 -15.974687 -19.314100 -7.125000 0.000000 0.000000 11.413500 3.401600 -10.939000 7.723986 3.392736 2.495594 79.893333 -27.105144 29.570139 -17.419685 37.173417 -3.963399 -0.152835 -1.693074 13.714373 -8.812663 9.894824 -1.836900 7.125000 0.000000 0.000000 12.625900 -18.405400 8.194800 
2.795376 17.414262 3.509135 -152.035395 -51.365624 148.079531 -5.167119 -5.459434 -4.283404 -3.464431 -23.235568 10.816296 1.869831 9.604186 20.945810 -0.589906 -18.030851 9.403028 0.263900 3.305000 9.128900 11.925434 -0.165107 4.207351 -12.490731 3.820230 -104.240881 -31.696936 -11.065083 131.373864 -3.107251 10.790348 20.836560 -0.940800 6.177900 -17.301400 -1.812105 -0.377063 46.596930 1.739536 -6.000268 -0.013273 -1.081414 -4.798462 7.225243 -10.242878 -10.154894 -15.423620 31.518918 -18.318072 2.502186 9.011600 -8.938500 5.615500 -6.424142 -4.143677 3.932773 -172.757764 -76.054454 132.607861 134.073454 -48.813520 -98.154901 -1.913783 2.528797 -7.113426 44.604704 -15.986762 -19.087300 -7.125000 0.000000 0.000000 11.165200 3.514200 -10.667800 7.743970 3.423224 2.525887 79.900079 -27.223899 29.751116 -17.167692 36.952485 -3.858784 -0.141229 -1.643076 14.036614 -8.288783 9.991580 -1.737000 7.125000 0.000000 0.000000 12.980300 -18.388300 8.442100 
